<?xml version="1.0" encoding="UTF-8"?>
<svg id="DIELINE" xmlns="http://www.w3.org/2000/svg" xmlns:xlink="http://www.w3.org/1999/xlink" viewBox="0 0 252 360">
  <defs>
    <style>
      .cls-1 {
        fill: none;
      }

      .cls-2 {
        fill: url(#linear-gradient-4);
      }

      .cls-3 {
        fill: url(#linear-gradient-3);
      }

      .cls-4 {
        fill: url(#linear-gradient-2);
      }

      .cls-5 {
        fill: url(#linear-gradient);
      }

      .cls-6 {
        clip-path: url(#clippath-1);
      }

      .cls-7 {
        clip-path: url(#clippath-3);
      }

      .cls-8 {
        clip-path: url(#clippath-4);
      }

      .cls-9 {
        clip-path: url(#clippath-2);
      }

      .cls-10 {
        clip-path: url(#clippath-6);
      }

      .cls-11 {
        clip-path: url(#clippath-5);
      }

      .cls-12 {
        fill: #fff;
      }

      .cls-13 {
        fill: #f26c4f;
      }

      .cls-14 {
        clip-path: url(#clippath);
      }

      .cls-15 {
        fill: #107365;
      }
    </style>
    <clipPath id="clippath">
      <rect class="cls-1" x="-283.75" y=".5" width="251" height="359" rx="27" ry="27"/>
    </clipPath>
    <clipPath id="clippath-1">
      <rect class="cls-1" x="-293.25" y="-9" width="270" height="378"/>
    </clipPath>
    <clipPath id="clippath-2">
      <rect class="cls-1" x="-302.25" y="-18" width="288" height="396"/>
    </clipPath>
    <clipPath id="clippath-3">
      <path class="cls-1" d="M-65.84,73.69h-236.4v304.31h77.6l53.49-79.91h104.85c.16,0,50.65,0,50.81,0,0,0,.44-.82,1.26-2.31V74.68c-11.45-.8-23.98-.99-37.58-.99h-14.02Z"/>
    </clipPath>
    <linearGradient id="linear-gradient" x1="2823.92" y1="1525.75" x2="2824.92" y2="1525.75" gradientTransform="translate(1219718.37 -658761.91) rotate(180) scale(431.91 -431.91)" gradientUnits="userSpaceOnUse">
      <stop offset="0" stop-color="#59c2aa"/>
      <stop offset="1" stop-color="#0f7264"/>
    </linearGradient>
    <clipPath id="clippath-4">
      <rect class="cls-1" x=".5" y=".5" width="251" height="359" rx="27" ry="27"/>
    </clipPath>
    <clipPath id="clippath-5">
      <rect class="cls-1" x="-9" y="-9" width="270" height="378"/>
    </clipPath>
    <linearGradient id="linear-gradient-2" x1="-185.68" y1="39.89" x2="491.24" y2="39.89" gradientUnits="userSpaceOnUse">
      <stop offset="0" stop-color="#f26c4f" stop-opacity=".94"/>
      <stop offset=".79" stop-color="#f9dba0"/>
    </linearGradient>
    <linearGradient id="linear-gradient-3" x1="161.22" y1="88.96" x2="35.62" y2="327.97" gradientUnits="userSpaceOnUse">
      <stop offset=".67" stop-color="#fff"/>
      <stop offset="1" stop-color="#231f20"/>
    </linearGradient>
    <clipPath id="clippath-6">
      <path class="cls-3" d="M-9,280.59H-.92c127.2,0,202.08-4.58,261.92-36.91v-77.76c-9.69-17.45-22.24-32.54-37.77-45.21-52.95-43.32-130.14-51.39-232.23-52.45v212.33Z"/>
    </clipPath>
    <linearGradient id="linear-gradient-4" x1="127.15" y1="59.82" x2="123.17" y2="455.34" gradientUnits="userSpaceOnUse">
      <stop offset="0" stop-color="#f26c4f" stop-opacity=".94"/>
      <stop offset=".15" stop-color="#f27354" stop-opacity=".94"/>
      <stop offset=".37" stop-color="#f38662" stop-opacity=".95"/>
      <stop offset=".64" stop-color="#f5a679" stop-opacity=".97"/>
      <stop offset=".95" stop-color="#f8d299" stop-opacity="1"/>
      <stop offset="1" stop-color="#f9dba0"/>
    </linearGradient>
  </defs>
  <g class="cls-14">
    <g class="cls-6">
      <g class="cls-9">
        <path class="cls-15" d="M108.24,2.16C63.03-34.83,4.89-38.94-38.91-38.94h-152.31c-60.89,0-24.23,112.63-107.72,112.63H-51.82c43.75,0,76.32,1.97,98.04,19.74,16.12,13.16,23.68,33.22,23.68,59.87,0,28.29-8.22,49.02-26.31,61.85-24.35,18.1-54.16,20.4-109.43,20.4v62.53c50.63-.03,118.07-4.9,168.61-42.47,37.68-26.72,54.8-69.87,54.8-128.79,0-55.49-15.76-97.27-49.32-124.67"/>
      </g>
      <g class="cls-7">
        <rect class="cls-5" x="-367.17" y="18.09" width="417.84" height="415.51" transform="translate(-233.25 -39.53) rotate(-50.8)"/>
      </g>
    </g>
  </g>
  <g class="cls-8">
    <g>
      <g class="cls-11">
        <path class="cls-4" d="M295.33-98.04c-57.85-47.33-144.62-52.59-261.19-52.59h-352.63V68.13H-37.96c116.57,0,203.34,5.26,261.19,52.59,32.24,26.32,51.63,63.01,59.3,109.7,1.94-1.35,3.87-2.74,5.79-4.16,48.2-34.18,70.12-89.4,70.12-164.77,0-71-20.16-124.46-63.1-159.52"/>
        <path class="cls-13" d="M-75.33,280.59v218.75h2.28c147.25,0,224.38-6.13,289.23-54.34,48.2-34.18,70.12-89.4,70.12-164.77,0-17.69-1.26-34.3-3.8-49.8,0,0,.02-.01.03-.02-63.69,44.4-140.55,50.18-283.45,50.18h-74.41Z"/>
      </g>
      <g>
        <path class="cls-3" d="M-9,280.59H-.92c127.2,0,202.08-4.58,261.92-36.91v-77.76c-9.69-17.45-22.24-32.54-37.77-45.21-52.95-43.32-130.14-51.39-232.23-52.45v212.33Z"/>
        <g class="cls-10">
          <rect class="cls-2" x="-9" y="68.26" width="270" height="212.33"/>
        </g>
      </g>
    </g>
    <g>
      <path class="cls-12" d="M117.38,335.36c-1.01,0-1.75-.75-1.75-1.88s.74-1.87,1.75-1.87,1.75.75,1.75,1.87-.74,1.88-1.75,1.88h0ZM117.38,329.19c-2.47,0-4.26,1.86-4.26,4.28s1.79,4.29,4.26,4.29,4.27-1.86,4.27-4.29-1.8-4.28-4.27-4.28h0Z"/>
      <path class="cls-12" d="M130.93,332.59c.21-.86.85-1.23,1.73-1.23.85,0,1.51.36,1.69,1.23h-3.42ZM132.64,329.19c-2.54,0-4.27,1.77-4.27,4.28s1.75,4.29,4.43,4.29c1.36,0,2.38-.46,2.93-1,.31-.31.25-.53-.12-1.01-.37-.46-.52-.5-.84-.35-.46.2-1.03.35-1.66.35-1.19,0-2.12-.51-2.27-1.51h4.99c.72,0,.83-.29.83-.9,0-2.43-1.5-4.16-4.02-4.16h0Z"/>
      <path class="cls-12" d="M146.07,335.52l-1.48-.99c-.13-.09-.23-.04-.33.07-.36.44-.85.76-1.58.76-1.09,0-1.91-.75-1.91-1.88s.81-1.87,1.91-1.87c.73,0,1.22.32,1.58.76.1.11.2.16.33.07l1.46-.99c.13-.09.19-.21.09-.34-.65-1.09-1.91-1.91-3.56-1.91-2.45,0-4.33,1.79-4.33,4.28s1.88,4.29,4.33,4.29c1.64,0,2.9-.82,3.56-1.91.1-.13.04-.25-.07-.33h0Z"/>
      <path class="cls-12" d="M154.67,334.94c-.31.26-.75.53-1.35.53s-1.3-.3-1.3-1.52v-2.5h3.04c.15,0,.25-.1.25-.25v-1.6c0-.15-.1-.25-.25-.25h-7.05c-.14,0-.25.1-.25.25v1.6c0,.15.11.25.25.25h1.43v2.87c0,2.83,1.94,3.45,3.34,3.45,1.75,0,2.77-.94,3.05-1.35.22-.31.29-.6-.31-1.19-.48-.49-.59-.5-.85-.28h0Z"/>
      <path class="cls-12" d="M161.42,335.36c-1.01,0-1.75-.75-1.75-1.88s.74-1.87,1.75-1.87,1.75.75,1.75,1.87-.74,1.88-1.75,1.88h0ZM161.42,329.19c-2.47,0-4.26,1.86-4.26,4.28s1.79,4.29,4.26,4.29,4.27-1.86,4.27-4.29-1.8-4.28-4.27-4.28h0Z"/>
      <path class="cls-12" d="M183.21,329.36h-2.09c-.15,0-.25.1-.25.25v3.41c0,1.04-.49,1.64-1.46,1.64s-1.48-.61-1.48-1.64v-3.41c0-.15-.1-.25-.25-.25h-2.09c-.15,0-.25.1-.25.25v3.91c0,2.18,1.11,3.53,2.82,3.53,1.33,0,2.02-.8,2.39-1.62h.31v1.36c0,1.28-1.47,1.63-2.4,1.63-.64,0-1.71-.19-2.2-.51-.14-.08-.31-.1-.41.08l-.73,1.25c-.29.5,1.65,1.5,3.61,1.5,2.22,0,4.73-.84,4.73-3.66v-7.48c0-.15-.1-.25-.25-.25h0Z"/>
      <path class="cls-12" d="M100,331.77h-2.13v-2.96h2.13c1.13,0,1.74.32,1.74,1.48s-.61,1.48-1.74,1.48h0ZM100.09,326.45h-4.65c-.15,0-.26.1-.26.25v10.61c0,.15.11.25.26.25h2.18c.15,0,.25-.1.25-.25v-3.19h2.23c2.99,0,4.2-1.4,4.2-3.83s-1.21-3.84-4.2-3.84h0Z"/>
      <path class="cls-12" d="M112.56,329.36c-.3-.11-.64-.17-1.01-.17-1.39,0-2.26.85-2.59,1.88h-.36l-.07-1.47c-.02-.15-.1-.25-.25-.25h-2.02c-.14,0-.25.11-.25.25v7.71c0,.14.11.25.25.25h2.09c.14,0,.25-.11.25-.25v-3.45c0-1.72.73-2.28,1.72-2.28.34,0,.72.06,1.02.3.16.13.4.07.48-.12l.9-2.02c.07-.15,0-.33-.16-.39h0Z"/>
      <path class="cls-12" d="M173.99,329.36c-.3-.11-.64-.17-1.01-.17-1.39,0-2.26.85-2.59,1.88h-.37l-.07-1.47c-.02-.15-.1-.25-.25-.25h-2.02c-.14,0-.25.11-.25.25v7.71c0,.14.11.25.25.25h2.09c.14,0,.25-.11.25-.25v-3.45c0-1.72.73-2.28,1.72-2.28.34,0,.72.06,1.02.3.16.13.4.07.48-.12l.9-2.02c.07-.15,0-.33-.16-.39h0Z"/>
      <path class="cls-12" d="M126.09,329.36h-2.09c-.14,0-.25.11-.25.25v7.19c0,1.28-.78,1.63-1.57,1.63h-.09c-.14,0-.26.12-.26.26v1.72c0,.23.22.33.35.34.13,0,.13.01.26.01,1.73,0,3.89-.84,3.89-3.66v-7.48c0-.14-.11-.25-.25-.25h0Z"/>
      <path class="cls-12" d="M86.78,331.08c0,1.76-.42,2.96-1.28,3.67h0c-1.18,1.03-2.56,1.21-5.83,1.22v-5.83c2.22,0,3.34-.11,4.55-1.01.6-.42,1.01-1.01,1.24-1.76.06.05.12.1.17.15.78.74,1.15,1.91,1.15,3.56h0ZM78.12,329.72v6.24h-3.4v-9.04c.89-.37,1.84-.55,2.81-.55h2.87c1.49,0,2.68.05,3.63.31-.11.53-.35.92-.73,1.19-.84.63-1.57.72-3.83.72h-.21c-.63,0-1.14.51-1.14,1.14h0ZM80.4,324.82h-2.87c-.96,0-1.91.15-2.81.45v-1.03c0-.55.45-1,1-1h3.99c1.57,0,2.93.05,3.68.67.34.28.55.66.65,1.18-1.15-.24-2.43-.26-3.65-.26h0ZM73.17,327.79v8.41c0,.73.59,1.32,1.32,1.32h3.63v2.15h-8.02v-5.86c0-2.4,1.14-4.63,3.07-6.02h0ZM86.7,326.4c-.31-.3-.65-.54-1.04-.75-.04-1.29-.48-2.28-1.29-2.94-1.15-.94-2.79-1.02-4.67-1.02h-3.99c-1.41,0-2.55,1.15-2.55,2.55v1.71c-2.85,1.58-4.62,4.58-4.62,7.85v6.09c0,.73.59,1.32,1.32,1.32h8.48c.73,0,1.32-.59,1.32-1.32v-2.38c3.12,0,5.15-.11,6.84-1.58,1.23-1.02,1.83-2.61,1.83-4.86,0-2.07-.55-3.65-1.63-4.68h0Z"/>
    </g>
  </g>
</svg>